<svg viewBox="0 0 396 227.5171" width="5000px" height="2872.690720991655px" xmlns="http://www.w3.org/2000/svg" xmlns:xlink="http://www.w3.org/1999/xlink" preserveAspectRatio="none"><defs></defs><style>.aLgOaV3zRcolors-0czC51sd6s {fill:#8C17D9;fill-opacity:1;}.companyNameczC51sd6s {fill:#E9E9E9;fill-opacity:1;}.textczC51sd6s {fill:#E9E9E9;fill-opacity:1;}</style><g opacity="1" transform="rotate(0 26.769800000000004 0)">
        <svg width="342.4603" height="227.5171" x="26.769800000000004" y="0" version="1.1" preserveAspectRatio="none" viewBox="4.200999736785889 21.96699905395508 89.02999114990234 59.14799880981445">
          <g transform="matrix(1 0 0 1 0 0)" class="aLgOaV3zRcolors-0czC51sd6s"><g><circle cx="46.796" cy="22.734" r="0.767"></circle><circle cx="46.796" cy="26.58" r="0.886"></circle><circle cx="46.796" cy="30.425" r="1.004"></circle><circle cx="46.797" cy="34.271" r="1.12"></circle><circle cx="46.796" cy="38.079" r="1.24"></circle><circle cx="46.797" cy="41.963" r="1.356"></circle><circle cx="46.797" cy="45.809" r="1.476"></circle><circle cx="43.004" cy="22.734" r="0.767"></circle><circle cx="43.004" cy="26.58" r="0.886"></circle><circle cx="43.004" cy="30.425" r="1.004"></circle><circle cx="43.004" cy="34.271" r="1.12"></circle><circle cx="43.004" cy="38.079" r="1.24"></circle><circle cx="43.004" cy="41.963" r="1.356"></circle><circle cx="43.004" cy="80.348" r="0.767"></circle><circle cx="43.004" cy="76.57" r="0.886"></circle><circle cx="43.004" cy="72.723" r="1.003"></circle><circle cx="43.004" cy="68.876" r="1.121"></circle><circle cx="43.004" cy="65.031" r="1.239"></circle><circle cx="43.004" cy="61.186" r="1.356"></circle><circle cx="46.796" cy="80.348" r="0.767"></circle><circle cx="46.796" cy="76.57" r="0.886"></circle><circle cx="46.796" cy="72.723" r="1.003"></circle><circle cx="46.797" cy="68.876" r="1.121"></circle><circle cx="46.796" cy="65.031" r="1.239"></circle><circle cx="46.797" cy="61.186" r="1.356"></circle><circle cx="43.004" cy="45.809" r="1.476"></circle><circle cx="46.797" cy="49.447" r="1.476"></circle><circle cx="43.004" cy="49.447" r="1.476"></circle><circle cx="46.797" cy="53.083" r="1.475"></circle><circle cx="43.004" cy="53.083" r="1.475"></circle><circle cx="46.797" cy="57.024" r="1.475"></circle><circle cx="50.594" cy="22.734" r="0.767"></circle><circle cx="50.591" cy="26.58" r="0.886"></circle><circle cx="50.586" cy="30.425" r="1.004"></circle><circle cx="50.582" cy="34.271" r="1.12"></circle><circle cx="50.578" cy="38.079" r="1.24"></circle><circle cx="50.573" cy="41.963" r="1.356"></circle><circle cx="50.57" cy="45.809" r="1.476"></circle><circle cx="50.594" cy="80.348" r="0.767"></circle><circle cx="50.591" cy="76.57" r="0.886"></circle><circle cx="50.586" cy="72.723" r="1.003"></circle><circle cx="50.582" cy="68.876" r="1.121"></circle><circle cx="50.578" cy="65.031" r="1.239"></circle><circle cx="50.573" cy="61.186" r="1.356"></circle><circle cx="50.57" cy="49.447" r="1.476"></circle><circle cx="50.57" cy="53.083" r="1.475"></circle><circle cx="50.57" cy="57.024" r="1.475"></circle><circle cx="54.53" cy="76.57" r="0.886"></circle><circle cx="54.525" cy="72.723" r="1.003"></circle><circle cx="54.522" cy="68.876" r="1.121"></circle><circle cx="54.52" cy="65.031" r="1.239"></circle><circle cx="58.309" cy="49.571" r="1.24"></circle><circle cx="62.145" cy="49.571" r="1.144"></circle><circle cx="65.983" cy="49.571" r="1.049"></circle><circle cx="69.821" cy="49.571" r="0.954"></circle><circle cx="73.659" cy="49.571" r="0.859"></circle><circle cx="77.497" cy="49.571" r="0.763"></circle><circle cx="81.334" cy="49.571" r="0.668"></circle><circle cx="85.172" cy="49.571" r="0.573"></circle><circle cx="89.01" cy="49.571" r="0.479"></circle><circle cx="92.848" cy="49.571" r="0.383"></circle><path d="M35.535,52.165c0.684,0,1.239,0.553,1.239,1.238s-0.556,1.24-1.239,1.24s-1.238-0.555-1.238-1.24   C34.297,52.722,34.852,52.165,35.535,52.165z"></path><circle cx="31.698" cy="53.403" r="1.144"></circle><circle cx="27.713" cy="53.403" r="0.764"></circle><circle cx="23.876" cy="53.403" r="0.668"></circle><circle cx="20.038" cy="53.403" r="0.573"></circle><circle cx="16.2" cy="53.403" r="0.479"></circle><circle cx="12.363" cy="53.403" r="0.383"></circle><circle cx="58.356" cy="57.149" r="1.144"></circle><circle cx="62.194" cy="57.149" r="1.049"></circle><circle cx="66.032" cy="57.149" r="0.953"></circle><circle cx="69.87" cy="57.149" r="0.858"></circle><circle cx="73.707" cy="57.149" r="0.763"></circle><circle cx="77.545" cy="57.149" r="0.669"></circle><circle cx="81.383" cy="57.149" r="0.572"></circle><circle cx="85.221" cy="57.149" r="0.479"></circle><circle cx="89.058" cy="57.149" r="0.383"></circle><circle cx="58.356" cy="60.788" r="1.144"></circle><circle cx="62.194" cy="60.788" r="1.049"></circle><circle cx="66.032" cy="60.788" r="0.953"></circle><path d="M70.729,60.788c0,0.473-0.384,0.857-0.859,0.857c-0.474,0-0.857-0.385-0.857-0.857c0-0.477,0.384-0.859,0.857-0.859   C70.345,59.929,70.729,60.312,70.729,60.788z"></path><circle cx="73.707" cy="60.788" r="0.763"></circle><circle cx="77.545" cy="60.788" r="0.669"></circle><circle cx="81.383" cy="60.788" r="0.572"></circle><circle cx="85.221" cy="60.788" r="0.479"></circle><circle cx="89.058" cy="60.788" r="0.383"></circle><circle cx="58.449" cy="65.032" r="0.668"></circle><circle cx="62.286" cy="65.032" r="0.573"></circle><circle cx="66.124" cy="65.032" r="0.477"></circle><circle cx="69.963" cy="65.031" r="0.384"></circle><circle cx="58.449" cy="68.972" r="0.668"></circle><circle cx="62.286" cy="68.972" r="0.573"></circle><circle cx="66.124" cy="68.972" r="0.477"></circle><circle cx="69.963" cy="68.973" r="0.382"></circle><circle cx="58.449" cy="72.761" r="0.668"></circle><circle cx="62.286" cy="72.761" r="0.573"></circle><circle cx="66.124" cy="72.761" r="0.477"></circle><circle cx="69.963" cy="72.762" r="0.382"></circle><path d="M59.117,76.548c0,0.369-0.3,0.67-0.669,0.67s-0.668-0.301-0.668-0.67c0-0.367,0.299-0.666,0.668-0.666   S59.117,76.181,59.117,76.548z"></path><path d="M62.858,76.548c0,0.318-0.255,0.576-0.572,0.576c-0.316,0-0.573-0.258-0.573-0.576c0-0.314,0.257-0.57,0.573-0.57   C62.604,75.978,62.858,76.233,62.858,76.548z"></path><path d="M66.601,76.548c0,0.264-0.212,0.48-0.478,0.48c-0.263,0-0.477-0.217-0.477-0.48c0-0.262,0.214-0.477,0.477-0.477   C66.389,76.071,66.601,76.286,66.601,76.548z"></path><circle cx="39.236" cy="80.348" r="0.767"></circle><circle cx="35.301" cy="80.349" r="0.573"></circle><circle cx="31.464" cy="80.349" r="0.478"></circle><circle cx="27.627" cy="80.349" r="0.383"></circle><circle cx="58.309" cy="53.209" r="1.239"></circle><circle cx="62.145" cy="53.21" r="1.144"></circle><circle cx="65.983" cy="53.21" r="1.049"></circle><circle cx="69.821" cy="53.21" r="0.954"></circle><circle cx="73.659" cy="53.21" r="0.859"></circle><circle cx="77.497" cy="53.21" r="0.763"></circle><circle cx="81.334" cy="53.21" r="0.668"></circle><circle cx="85.172" cy="53.21" r="0.573"></circle><circle cx="89.01" cy="53.21" r="0.479"></circle><circle cx="54.514" cy="61.186" r="1.356"></circle><circle cx="54.511" cy="49.447" r="1.476"></circle><circle cx="58.309" cy="45.783" r="1.239"></circle><circle cx="62.145" cy="45.782" r="1.144"></circle><circle cx="65.983" cy="45.782" r="1.049"></circle><circle cx="69.821" cy="45.782" r="0.954"></circle><circle cx="73.659" cy="45.782" r="0.859"></circle><circle cx="77.497" cy="45.782" r="0.763"></circle><path d="M82.002,45.782c0,0.369-0.299,0.67-0.667,0.67c-0.369,0-0.669-0.301-0.669-0.67c0-0.367,0.3-0.668,0.669-0.668   C81.703,45.114,82.002,45.415,82.002,45.782z"></path><circle cx="85.172" cy="45.782" r="0.573"></circle><circle cx="89.01" cy="45.782" r="0.479"></circle><circle cx="92.848" cy="45.782" r="0.383"></circle><circle cx="35.441" cy="45.632" r="0.954"></circle><circle cx="31.604" cy="45.632" r="0.858"></circle><circle cx="27.766" cy="45.632" r="0.764"></circle><circle cx="23.928" cy="45.632" r="0.668"></circle><circle cx="20.09" cy="45.632" r="0.573"></circle><circle cx="16.252" cy="45.632" r="0.478"></circle><circle cx="12.414" cy="45.631" r="0.382"></circle><circle cx="35.368" cy="30.323" r="0.574"></circle><circle cx="31.529" cy="30.323" r="0.479"></circle><circle cx="27.692" cy="30.323" r="0.383"></circle><circle cx="35.368" cy="34.265" r="0.689"></circle><circle cx="31.529" cy="34.265" r="0.479"></circle><circle cx="27.692" cy="34.265" r="0.383"></circle><circle cx="35.463" cy="26.687" r="0.478"></circle><path d="M54.52,43.233c-0.686,0-1.24-0.555-1.24-1.24c0-0.682,0.555-1.238,1.24-1.238c0.683,0,1.237,0.557,1.237,1.238   C55.757,42.679,55.202,43.233,54.52,43.233z"></path><circle cx="58.356" cy="41.993" r="1.144"></circle><circle cx="62.194" cy="41.993" r="1.049"></circle><circle cx="54.52" cy="38.079" r="1.24"></circle><circle cx="58.356" cy="38.079" r="1.144"></circle><circle cx="62.194" cy="38.079" r="1.049"></circle><circle cx="66.032" cy="41.993" r="0.953"></circle><path d="M70.729,41.993c0,0.473-0.384,0.861-0.859,0.861c-0.474,0-0.857-0.389-0.857-0.861s0.384-0.859,0.857-0.859   C70.345,41.134,70.729,41.521,70.729,41.993z"></path><circle cx="54.464" cy="34.265" r="1.049"></circle><circle cx="58.302" cy="34.265" r="0.954"></circle><circle cx="62.14" cy="34.265" r="0.859"></circle><circle cx="73.707" cy="41.993" r="0.763"></circle><circle cx="77.545" cy="41.993" r="0.669"></circle><circle cx="66.027" cy="38.079" r="0.667"></circle><circle cx="81.383" cy="41.993" r="0.572"></circle><circle cx="69.864" cy="38.079" r="0.573"></circle><circle cx="85.221" cy="41.993" r="0.479"></circle><circle cx="89.058" cy="41.995" r="0.383"></circle><circle cx="73.6" cy="38.079" r="0.383"></circle><circle cx="35.251" cy="38.079" r="1.144"></circle><circle cx="31.413" cy="38.079" r="1.049"></circle><circle cx="27.58" cy="38.079" r="0.668"></circle><circle cx="23.743" cy="38.079" r="0.573"></circle><circle cx="20.008" cy="38.079" r="0.383"></circle><circle cx="35.251" cy="42.019" r="1.144"></circle><circle cx="31.413" cy="42.019" r="1.049"></circle><circle cx="27.58" cy="42.019" r="0.668"></circle><circle cx="23.743" cy="42.019" r="0.573"></circle><circle cx="20.008" cy="42.021" r="0.383"></circle><circle cx="54.616" cy="30.349" r="1.048"></circle><path d="M59.117,30.349c0,0.369-0.3,0.67-0.669,0.67s-0.668-0.301-0.668-0.67c0-0.367,0.299-0.668,0.668-0.668   S59.117,29.981,59.117,30.349z"></path><circle cx="62.286" cy="30.349" r="0.573"></circle><circle cx="66.021" cy="30.35" r="0.384"></circle><circle cx="54.405" cy="26.712" r="0.573"></circle><circle cx="58.141" cy="26.712" r="0.383"></circle><circle cx="54.511" cy="45.658" r="1.476"></circle><circle cx="54.511" cy="53.083" r="1.475"></circle><circle cx="54.511" cy="57.024" r="1.475"></circle><circle cx="43.004" cy="57.024" r="1.475"></circle><circle cx="39.237" cy="26.58" r="0.886"></circle><circle cx="39.237" cy="30.425" r="1.004"></circle><circle cx="35.368" cy="76.399" r="0.574"></circle><circle cx="31.529" cy="76.399" r="0.479"></circle><circle cx="27.692" cy="76.397" r="0.383"></circle><circle cx="39.237" cy="76.5" r="1.003"></circle><circle cx="39.237" cy="34.271" r="1.12"></circle><circle cx="39.237" cy="38.079" r="1.24"></circle><path d="M34.107,72.329c0-0.629,0.512-1.143,1.143-1.143c0.633,0,1.146,0.514,1.146,1.143c0,0.635-0.513,1.146-1.146,1.146   C34.619,73.476,34.107,72.964,34.107,72.329z"></path><path d="M30.364,72.329c0-0.576,0.47-1.047,1.049-1.047c0.58,0,1.049,0.471,1.049,1.047c0,0.584-0.469,1.053-1.049,1.053   C30.834,73.382,30.364,72.913,30.364,72.329z"></path><path d="M26.912,72.329c0-0.365,0.301-0.666,0.669-0.666c0.369,0,0.667,0.301,0.667,0.666c0,0.371-0.298,0.67-0.667,0.67   C27.213,72.999,26.912,72.7,26.912,72.329z"></path><path d="M23.17,72.329c0-0.314,0.257-0.57,0.573-0.57s0.572,0.256,0.572,0.57c0,0.318-0.256,0.574-0.572,0.574   S23.17,72.647,23.17,72.329z"></path><path d="M20.008,71.948c0.212,0,0.384,0.17,0.384,0.381c0,0.215-0.172,0.385-0.384,0.385c-0.21,0-0.383-0.17-0.383-0.385   C19.625,72.118,19.798,71.948,20.008,71.948z"></path><path d="M39.237,71.093c-0.687,0-1.24,0.553-1.24,1.236c0,0.688,0.554,1.24,1.24,1.24c0.684,0,1.238-0.553,1.238-1.24   C40.476,71.646,39.921,71.093,39.237,71.093z"></path><circle cx="39.237" cy="41.963" r="1.356"></circle><circle cx="35.251" cy="49.446" r="1.144"></circle><circle cx="31.413" cy="49.446" r="1.049"></circle><circle cx="27.58" cy="49.446" r="0.668"></circle><circle cx="23.743" cy="49.446" r="0.573"></circle><circle cx="20.008" cy="49.446" r="0.383"></circle><path d="M39.237,48.032c-0.751,0-1.357,0.609-1.357,1.359c0,0.746,0.606,1.355,1.357,1.355c0.748,0,1.356-0.609,1.356-1.355   C40.594,48.642,39.985,48.032,39.237,48.032z"></path><circle cx="39.237" cy="45.809" r="1.476"></circle><circle cx="39.237" cy="53.404" r="1.474"></circle><circle cx="35.535" cy="57.193" r="1.239"></circle><circle cx="31.698" cy="57.192" r="1.144"></circle><circle cx="27.713" cy="57.192" r="0.764"></circle><circle cx="23.876" cy="57.192" r="0.668"></circle><circle cx="20.038" cy="57.192" r="0.573"></circle><circle cx="16.2" cy="57.192" r="0.479"></circle><circle cx="12.363" cy="57.193" r="0.382"></circle><circle cx="8.422" cy="57.191" r="0.317"></circle><circle cx="4.481" cy="57.193" r="0.28"></circle><circle cx="39.237" cy="57.192" r="1.475"></circle><circle cx="35.535" cy="60.981" r="1.238"></circle><circle cx="31.698" cy="60.981" r="1.144"></circle><path d="M26.949,60.981c0-0.422,0.343-0.762,0.766-0.762c0.42,0,0.762,0.34,0.762,0.762c0,0.424-0.342,0.764-0.762,0.764   C27.292,61.745,26.949,61.405,26.949,60.981z"></path><path d="M23.208,60.983c0-0.369,0.299-0.67,0.668-0.67s0.669,0.299,0.669,0.67c-0.001,0.367-0.3,0.666-0.669,0.666   S23.208,61.351,23.208,60.983z"></path><circle cx="20.038" cy="60.983" r="0.573"></circle><circle cx="16.2" cy="60.981" r="0.479"></circle><circle cx="12.363" cy="60.982" r="0.382"></circle><circle cx="8.422" cy="60.982" r="0.317"></circle><circle cx="4.481" cy="60.982" r="0.28"></circle><circle cx="73.796" cy="65.074" r="0.28"></circle><circle cx="73.796" cy="68.862" r="0.279"></circle><circle cx="39.236" cy="64.923" r="1.238"></circle><circle cx="35.487" cy="64.923" r="1.144"></circle><circle cx="31.503" cy="64.923" r="0.764"></circle><circle cx="27.665" cy="64.923" r="0.669"></circle><circle cx="23.828" cy="64.923" r="0.574"></circle><circle cx="19.989" cy="64.923" r="0.478"></circle><circle cx="16.151" cy="64.923" r="0.383"></circle><circle cx="12.212" cy="64.923" r="0.316"></circle><circle cx="8.271" cy="64.923" r="0.279"></circle><circle cx="39.236" cy="68.711" r="1.239"></circle><circle cx="35.487" cy="68.712" r="1.144"></circle><circle cx="31.503" cy="68.712" r="0.764"></circle><circle cx="27.665" cy="68.712" r="0.669"></circle><circle cx="23.828" cy="68.712" r="0.574"></circle><circle cx="19.989" cy="68.712" r="0.478"></circle><circle cx="16.151" cy="68.712" r="0.383"></circle><circle cx="12.212" cy="68.713" r="0.317"></circle><circle cx="39.237" cy="60.982" r="1.476"></circle></g></g>
        </svg>
      </g><g opacity="1" transform="rotate(0 13.411100000000005 162.36440000000002)">
        <svg width="369.1778" height="21.7176" x="13.411100000000005" y="162.36440000000002" version="1.1" preserveAspectRatio="none" viewBox="0.12 -28 481.35999999999996 28.32">
          <g transform="matrix(1 0 0 1 0 0)" class="textczC51sd6s"><path transform="" stroke="none" d="M21.72-26.48L25-26.48L14.28 0L10.84 0L0.12-26.48L3.40-26.48L12.56-3.40L21.72-26.48Z"></path>
    <path transform="" stroke="none" d="M31.72 0L31.72-20L34.72-20L34.72 0L31.72 0ZM31.60-27.28L34.84-27.28L34.84-23.36L31.60-23.36L31.60-27.28Z"></path>
    <path transform="" stroke="none" d="M59.52 0L59.52-3.20Q57.12 0.32 52.36 0.32L52.36 0.32Q48.04 0.32 45.32-2.68L45.32-2.68Q42.68-5.64 42.68-10L42.68-10Q42.68-14.36 45.32-17.32L45.32-17.32Q48.04-20.32 52.56-20.32Q57.08-20.32 59.52-16.76L59.52-16.76L59.52-28L62.52-28L62.52 0L59.52 0ZM52.76-2.40L52.76-2.40Q56-2.40 57.88-4.64L57.88-4.64Q59.68-6.76 59.68-10L59.68-10Q59.68-13.24 57.88-15.36L57.88-15.36Q56-17.60 52.76-17.60L52.76-17.60Q49.56-17.60 47.56-15.36L47.56-15.36Q45.68-13.24 45.68-10L45.68-10Q45.68-6.76 47.56-4.64L47.56-4.64Q49.56-2.40 52.76-2.40Z"></path>
    <path transform="" stroke="none" d="M80.64-2.40L80.64-2.40Q84.68-2.40 86.44-5.76L86.44-5.76L89.72-5.76Q88.68-3.04 86.42-1.36Q84.16 0.32 80.60 0.32L80.60 0.32Q76.08 0.32 73.24-2.68L73.24-2.68Q70.48-5.60 70.48-10L70.48-10Q70.48-14.44 73.12-17.32L73.12-17.32Q75.92-20.32 80.40-20.32L80.40-20.32Q84.88-20.32 87.68-17.32L87.68-17.32Q90.32-14.44 90.32-10L90.32-10L90.32-8.80L73.56-8.80Q73.88-6.04 75.76-4.24L75.76-4.24Q77.68-2.40 80.64-2.40ZM80.40-17.60L80.40-17.60Q77.64-17.60 75.76-15.88L75.76-15.88Q74-14.24 73.60-11.60L73.60-11.60L87.20-11.60Q86.80-14.24 85.04-15.88L85.04-15.88Q83.16-17.60 80.40-17.60Z"></path>
    <path transform="" stroke="none" d="M106.68-20.32L106.68-20.32Q111.16-20.32 113.96-17.32L113.96-17.32Q116.60-14.44 116.60-10L116.60-10Q116.60-5.56 113.96-2.68L113.96-2.68Q111.16 0.32 106.68 0.32L106.68 0.32Q102.20 0.32 99.40-2.68L99.40-2.68Q96.76-5.56 96.76-10L96.76-10Q96.76-14.44 99.40-17.32L99.40-17.32Q102.20-20.32 106.68-20.32ZM106.68-2.40L106.68-2.40Q109.92-2.40 111.80-4.64L111.80-4.64Q113.60-6.76 113.60-10L113.60-10Q113.60-13.24 111.80-15.36L111.80-15.36Q109.92-17.60 106.68-17.60L106.68-17.60Q103.44-17.60 101.56-15.36L101.56-15.36Q99.76-13.24 99.76-10L99.76-10Q99.76-6.76 101.56-4.64L101.56-4.64Q103.44-2.40 106.68-2.40Z"></path>
    <path transform="" stroke="none" d=""></path>
    <path transform="" stroke="none" d="M139.60-22.84Q141.28-24.68 143.68-25.74Q146.08-26.80 148.64-26.80Q151.20-26.80 153.08-26.24Q154.96-25.68 156.48-24.72L156.48-24.72Q159.64-22.68 161.12-19.28L161.12-19.28L157.84-19.28Q156.64-21.44 154.50-22.66Q152.36-23.88 149.64-23.88Q146.92-23.88 145.00-23.06Q143.08-22.24 141.76-20.80L141.76-20.80Q139.04-17.84 139.04-13.24L139.04-13.24Q139.04-8.60 141.72-5.68L141.72-5.68Q144.56-2.60 149.24-2.60L149.24-2.60Q153.00-2.60 155.72-4.92L155.72-4.92Q158.60-7.36 158.60-11.36L158.60-11.36L148.92-11.36L148.92-14.08L161.36-14.08L161.36 0L158.60 0L158.60-4.68Q156.32-1.24 152.28-0.08L152.28-0.08Q150.80 0.32 148.38 0.32Q145.96 0.32 143.56-0.74Q141.16-1.80 139.48-3.64L139.48-3.64Q136.04-7.40 136.04-13.24L136.04-13.24Q136.04-19 139.60-22.84L139.60-22.84Z"></path>
    <path transform="" stroke="none" d="M185.60 0L185.60-3.20Q183.20 0.32 178.44 0.32L178.44 0.32Q174.12 0.32 171.40-2.68L171.40-2.68Q168.76-5.64 168.76-10L168.76-10Q168.76-14.36 171.40-17.32L171.40-17.32Q174.12-20.32 178.64-20.32Q183.16-20.32 185.60-16.76L185.60-16.76L185.60-20L188.60-20L188.60 0L185.60 0ZM178.84-2.40L178.84-2.40Q182.08-2.40 183.96-4.64L183.96-4.64Q185.76-6.76 185.76-10L185.76-10Q185.76-13.24 183.96-15.36L183.96-15.36Q182.08-17.60 178.84-17.60L178.84-17.60Q175.64-17.60 173.64-15.36L173.64-15.36Q171.76-13.24 171.76-10L171.76-10Q171.76-6.76 173.64-4.64L173.64-4.64Q175.64-2.40 178.84-2.40Z"></path>
    <path transform="" stroke="none" d="M200.80-20L200.80-16.96Q202.80-20.32 206.88-20.32L206.88-20.32Q208.88-20.32 210.58-19.26Q212.28-18.20 213.24-16.28L213.24-16.28Q214.60-18.80 217.48-19.88L217.48-19.88Q218.64-20.32 220.10-20.32Q221.56-20.32 222.90-19.74Q224.24-19.16 225.28-18.08L225.28-18.08Q227.52-15.68 227.52-12.08L227.52-12.08L227.52 0L224.52 0L224.52-12Q224.52-14.48 223.12-16.08L223.12-16.08Q221.72-17.60 219.56-17.60L219.56-17.60Q217.28-17.60 215.76-16.12L215.76-16.12Q214.16-14.60 214.16-11.96L214.16-11.96L214.16 0L211.16 0L211.16-12Q211.16-14.48 209.76-16.08L209.76-16.08Q208.36-17.60 206.20-17.60L206.20-17.60Q203.92-17.60 202.40-16.12L202.40-16.12Q200.80-14.60 200.80-11.96L200.80-11.96L200.80 0L197.80 0L197.80-20L200.80-20Z"></path>
    <path transform="" stroke="none" d="M245.44-2.40L245.44-2.40Q249.48-2.40 251.24-5.76L251.24-5.76L254.52-5.76Q253.48-3.04 251.22-1.36Q248.96 0.32 245.40 0.32L245.40 0.32Q240.88 0.32 238.04-2.68L238.04-2.68Q235.28-5.60 235.28-10L235.28-10Q235.28-14.44 237.92-17.32L237.92-17.32Q240.72-20.32 245.20-20.32L245.20-20.32Q249.68-20.32 252.48-17.32L252.48-17.32Q255.12-14.44 255.12-10L255.12-10L255.12-8.80L238.36-8.80Q238.68-6.04 240.56-4.24L240.56-4.24Q242.48-2.40 245.44-2.40ZM245.20-17.60L245.20-17.60Q242.44-17.60 240.56-15.88L240.56-15.88Q238.80-14.24 238.40-11.60L238.40-11.60L252.00-11.60Q251.60-14.24 249.84-15.88L249.84-15.88Q247.96-17.60 245.20-17.60Z"></path>
    <path transform="" stroke="none" d=""></path>
    <path transform="" stroke="none" d="M287.72-26.80L287.72-26.80Q293.64-26.80 297.44-22.84L297.44-22.84Q301.16-19 301.16-13.24Q301.16-7.48 297.44-3.64L297.44-3.64Q293.64 0.32 287.72 0.32L287.72 0.32Q281.80 0.32 278-3.64L278-3.64Q274.28-7.48 274.28-13.24Q274.28-19 278-22.84L278-22.84Q281.80-26.80 287.72-26.80ZM287.72-2.60L287.72-2.60Q292.44-2.60 295.36-5.68L295.36-5.68Q298.16-8.64 298.16-13.24L298.16-13.24Q298.16-17.84 295.36-20.80L295.36-20.80Q292.44-23.88 287.72-23.88L287.72-23.88Q283-23.88 280.08-20.80L280.08-20.80Q277.28-17.84 277.28-13.24L277.28-13.24Q277.28-8.64 280.08-5.68L280.08-5.68Q283-2.60 287.72-2.60Z"></path>
    <path transform="" stroke="none" d="M319.68-20.32L319.88-20.32L319.88-17.32L319.52-17.32Q316.28-17.32 314.24-14.72L314.24-14.72Q312.32-12.24 312.32-8.80L312.32-8.80L312.32 0L309.32 0L309.32-20L312.32-20L312.32-15.08Q313.28-18.20 316.48-19.68L316.48-19.68Q317.80-20.32 319.68-20.32L319.68-20.32Z"></path>
    <path transform="" stroke="none" d="M335.84-2.40L335.84-2.40Q337.76-2.40 339.24-3.48Q340.72-4.56 341.40-6.28L341.40-6.28L344.64-6.28Q343.72-3.32 341.28-1.52L341.28-1.52Q338.72 0.32 335.20 0.32L335.20 0.32Q330.80 0.32 328.04-2.68L328.04-2.68Q325.36-5.60 325.36-10L325.36-10Q325.36-14.40 328.04-17.32L328.04-17.32Q330.80-20.32 335.20-20.32L335.20-20.32Q338.72-20.32 341.28-18.48L341.28-18.48Q343.72-16.68 344.64-13.72L344.64-13.72L341.40-13.72Q340.72-15.44 339.24-16.52Q337.76-17.60 335.84-17.60Q333.92-17.60 332.58-17Q331.24-16.40 330.32-15.36L330.32-15.36Q328.36-13.20 328.36-10L328.36-10Q328.36-6.80 330.32-4.64L330.32-4.64Q332.32-2.40 335.84-2.40Z"></path>
    <path transform="" stroke="none" d="M352.36-28L355.36-28L355.36-16.88Q356.44-18.32 358.00-19.32Q359.56-20.32 361.56-20.32Q363.56-20.32 365.00-19.76Q366.44-19.20 367.52-18.08L367.52-18.08Q370.00-15.64 370.00-11.64L370.00-11.64L370.00 0L367.00 0L367.00-11.56Q367.00-14.32 365.44-15.96Q363.88-17.60 361.40-17.60L361.40-17.60Q358.88-17.60 357.12-15.92L357.12-15.92Q355.36-14.20 355.36-11.52L355.36-11.52L355.36 0L352.36 0L352.36-28Z"></path>
    <path transform="" stroke="none" d="M387.92-2.40L387.92-2.40Q391.96-2.40 393.72-5.76L393.72-5.76L397.00-5.76Q395.96-3.04 393.70-1.36Q391.44 0.32 387.88 0.32L387.88 0.32Q383.36 0.32 380.52-2.68L380.52-2.68Q377.76-5.60 377.76-10L377.76-10Q377.76-14.44 380.40-17.32L380.40-17.32Q383.20-20.32 387.68-20.32L387.68-20.32Q392.16-20.32 394.96-17.32L394.96-17.32Q397.60-14.44 397.60-10L397.60-10L397.60-8.80L380.84-8.80Q381.16-6.04 383.04-4.24L383.04-4.24Q384.96-2.40 387.92-2.40ZM387.68-17.60L387.68-17.60Q384.92-17.60 383.04-15.88L383.04-15.88Q381.28-14.24 380.88-11.60L380.88-11.60L394.48-11.60Q394.08-14.24 392.32-15.88L392.32-15.88Q390.44-17.60 387.68-17.60Z"></path>
    <path transform="" stroke="none" d="M420.08-14.64L417.04-14.64Q416.64-17.76 412.02-17.76Q407.40-17.76 407.40-14.88L407.40-14.88Q407.40-13.68 408.38-13.06Q409.36-12.44 410.84-12.04Q412.32-11.64 414.06-11.30Q415.80-10.96 417.28-10.34Q418.76-9.72 419.74-8.64Q420.72-7.56 420.72-5.68L420.72-5.68Q420.72-2.76 418.52-1.22Q416.32 0.32 412.56 0.32L412.56 0.32Q408.56 0.32 406.20-1.68L406.20-1.68Q404.04-3.44 403.88-6.28L403.88-6.28L407.00-6.28Q407.28-3.52 410.12-2.56L410.12-2.56Q411.16-2.24 412.18-2.24Q413.20-2.24 414.08-2.36Q414.96-2.48 415.80-2.80L415.80-2.80Q417.72-3.56 417.72-5.40L417.72-5.40Q417.72-6.64 416.74-7.30Q415.76-7.96 414.28-8.38Q412.80-8.80 411.06-9.14Q409.32-9.48 407.84-10.08Q406.36-10.68 405.38-11.72Q404.40-12.76 404.40-14.60L404.40-14.60Q404.40-17.32 406.38-18.82Q408.36-20.32 412.24-20.32L412.24-20.32Q415.92-20.32 418.04-18.56L418.04-18.56Q419.80-17.08 420.08-14.64L420.08-14.64Z"></path>
    <path transform="" stroke="none" d="M433.72 0L430.72 0L430.72-17.36L426.64-17.36L426.64-20L430.72-20L430.72-27.16L433.72-27.16L433.72-20L438.32-20L438.32-17.36L433.72-17.36L433.72 0Z"></path>
    <path transform="" stroke="none" d="M455.96-20.32L456.16-20.32L456.16-17.32L455.80-17.32Q452.56-17.32 450.52-14.72L450.52-14.72Q448.60-12.24 448.60-8.80L448.60-8.80L448.60 0L445.60 0L445.60-20L448.60-20L448.60-15.08Q449.56-18.20 452.76-19.68L452.76-19.68Q454.08-20.32 455.96-20.32L455.96-20.32Z"></path>
    <path transform="" stroke="none" d="M478.48 0L478.48-3.20Q476.08 0.32 471.32 0.32L471.32 0.32Q467.00 0.32 464.28-2.68L464.28-2.68Q461.64-5.64 461.64-10L461.64-10Q461.64-14.36 464.28-17.32L464.28-17.32Q467.00-20.32 471.52-20.32Q476.04-20.32 478.48-16.76L478.48-16.76L478.48-20L481.48-20L481.48 0L478.48 0ZM471.72-2.40L471.72-2.40Q474.96-2.40 476.84-4.64L476.84-4.64Q478.64-6.76 478.64-10L478.64-10Q478.64-13.24 476.84-15.36L476.84-15.36Q474.96-17.60 471.72-17.60L471.72-17.60Q468.52-17.60 466.52-15.36L466.52-15.36Q464.64-13.24 464.64-10L464.64-10Q464.64-6.76 466.52-4.64L466.52-4.64Q468.52-2.40 471.72-2.40Z"></path>
    </g>
        </svg>
      </g><g opacity="1" transform="rotate(0 0 87.9043)">
        <svg width="396" height="51.7084" x="0" y="87.9043" version="1.1" preserveAspectRatio="none" viewBox="-0.36 -31.48 244.76 31.96">
          <g transform="matrix(1 0 0 1 0 0)" class="companyNameczC51sd6s"><path transform="" stroke="none" d="M23.80-28L30.24-28L18.12 0L11.72 0L-0.36-28L6.64-28L15.16-8L23.80-28Z"></path>
    <path transform="" stroke="none" d="M32.52 0L32.52-21.52L38.76-21.52L38.76 0L32.52 0ZM35.64-24.52Q33.92-24.52 32.84-25.52Q31.76-26.52 31.76-28L31.76-28Q31.76-29.48 32.84-30.48Q33.92-31.48 35.64-31.48L35.64-31.48Q37.36-31.48 38.44-30.52Q39.52-29.56 39.52-28.12L39.52-28.12Q39.52-26.56 38.44-25.54Q37.36-24.52 35.64-24.52L35.64-24.52Z"></path>
    <path transform="" stroke="none" d="M50.52-18.68Q51.64-20.24 53.54-21.04Q55.44-21.84 57.92-21.84L57.92-21.84L57.92-16.08Q56.88-16.16 56.52-16.16L56.52-16.16Q53.84-16.16 52.32-14.66Q50.80-13.16 50.80-10.16L50.80-10.16L50.80 0L44.56 0L44.56-21.52L50.52-21.52L50.52-18.68Z"></path>
    <path transform="" stroke="none" d="M74.60-5.44L76.28-1.04Q75.36-0.36 74.02-0.02Q72.68 0.32 71.20 0.32L71.20 0.32Q67.36 0.32 65.26-1.64Q63.16-3.60 63.16-7.40L63.16-7.40L63.16-16.24L59.84-16.24L59.84-21.04L63.16-21.04L63.16-26.28L69.40-26.28L69.40-21.04L74.76-21.04L74.76-16.24L69.40-16.24L69.40-7.48Q69.40-6.12 70.10-5.38Q70.80-4.64 72.08-4.64L72.08-4.64Q73.56-4.64 74.60-5.44L74.60-5.44Z"></path>
    <path transform="" stroke="none" d="M95.24-21.52L101.48-21.52L101.48 0L95.56 0L95.56-2.56Q94.32-1.16 92.60-0.42Q90.88 0.32 88.88 0.32L88.88 0.32Q84.64 0.32 82.16-2.12Q79.68-4.56 79.68-9.36L79.68-9.36L79.68-21.52L85.92-21.52L85.92-10.28Q85.92-5.08 90.28-5.08L90.28-5.08Q92.52-5.08 93.88-6.54Q95.24-8 95.24-10.88L95.24-10.88L95.24-21.52Z"></path>
    <path transform="" stroke="none" d="M115.96-21.84Q120.96-21.84 123.64-19.46Q126.32-17.08 126.32-12.28L126.32-12.28L126.32 0L120.48 0L120.48-2.68Q118.72 0.32 113.92 0.32L113.92 0.32Q111.44 0.32 109.62-0.52Q107.80-1.36 106.84-2.84Q105.88-4.32 105.88-6.20L105.88-6.20Q105.88-9.20 108.14-10.92Q110.40-12.64 115.12-12.64L115.12-12.64L120.08-12.64Q120.08-14.68 118.84-15.78Q117.60-16.88 115.12-16.88L115.12-16.88Q113.40-16.88 111.74-16.34Q110.08-15.80 108.92-14.88L108.92-14.88L106.68-19.24Q108.44-20.48 110.90-21.16Q113.36-21.84 115.96-21.84L115.96-21.84ZM115.48-3.88Q117.08-3.88 118.32-4.62Q119.56-5.36 120.08-6.80L120.08-6.80L120.08-9L115.80-9Q111.96-9 111.96-6.48L111.96-6.48Q111.96-5.28 112.90-4.58Q113.84-3.88 115.48-3.88L115.48-3.88Z"></path>
    <path transform="" stroke="none" d="M131.96 0L131.96-29.68L138.20-29.68L138.20 0L131.96 0Z"></path>
    <path transform="" stroke="none" d=""></path>
    <path transform="" stroke="none" d="M176.24-28L182.68-28L170.56 0L164.16 0L152.08-28L159.08-28L167.60-8L176.24-28Z"></path>
    <path transform="" stroke="none" d="M203.60-6.24L203.60-14.44L209.52-14.44L209.52-3.08Q207.24-1.36 204.24-0.44Q201.24 0.48 198.20 0.48L198.20 0.48Q193.84 0.48 190.36-1.38Q186.88-3.24 184.90-6.54Q182.92-9.84 182.92-14L182.92-14Q182.92-18.16 184.90-21.46Q186.88-24.76 190.40-26.62Q193.92-28.48 198.32-28.48L198.32-28.48Q202-28.48 205-27.24Q208-26 210.04-23.64L210.04-23.64L205.88-19.80Q202.88-22.96 198.64-22.96L198.64-22.96Q195.96-22.96 193.88-21.84Q191.80-20.72 190.64-18.68Q189.48-16.64 189.48-14L189.48-14Q189.48-11.40 190.64-9.36Q191.80-7.32 193.86-6.18Q195.92-5.04 198.56-5.04L198.56-5.04Q201.36-5.04 203.60-6.24L203.60-6.24Z"></path>
    <path transform="" stroke="none" d="M229.08 0.48Q224.72 0.48 221.22-1.40Q217.72-3.28 215.74-6.58Q213.76-9.88 213.76-14L213.76-14Q213.76-18.12 215.74-21.42Q217.72-24.72 221.22-26.60Q224.72-28.48 229.08-28.48L229.08-28.48Q233.44-28.48 236.92-26.60Q240.40-24.72 242.40-21.42Q244.40-18.12 244.40-14L244.40-14Q244.40-9.88 242.40-6.58Q240.40-3.28 236.92-1.40Q233.44 0.48 229.08 0.48L229.08 0.48ZM229.08-5.04Q231.56-5.04 233.56-6.18Q235.56-7.32 236.70-9.36Q237.84-11.40 237.84-14L237.84-14Q237.84-16.60 236.70-18.64Q235.56-20.68 233.56-21.82Q231.56-22.96 229.08-22.96L229.08-22.96Q226.60-22.96 224.60-21.82Q222.60-20.68 221.46-18.64Q220.32-16.60 220.32-14L220.32-14Q220.32-11.40 221.46-9.36Q222.60-7.32 224.60-6.18Q226.60-5.04 229.08-5.04L229.08-5.04Z"></path>
    </g>
        </svg>
      </g></svg>